<svg width="264" height="1032" viewBox="0 0 264 1032" fill="none" xmlns="http://www.w3.org/2000/svg">
<g filter="url(#filter0_dd_19_13)">
<path d="M4 0H234C248.359 0 260 11.6406 260 26V998C260 1012.36 248.359 1024 234 1024H4V0Z" fill="white" shape-rendering="crispEdges"/>
<rect x="53.5" y="42" width="157" height="77" rx="9" fill="white"/>
<path d="M103.25 86.125C103.25 87.015 102.986 87.885 102.492 88.6251C101.997 89.3651 101.294 89.9419 100.472 90.2825C99.6498 90.6231 98.745 90.7122 97.8721 90.5385C96.9992 90.3649 96.1974 89.9363 95.568 89.307C94.9387 88.6776 94.5101 87.8758 94.3365 87.0029C94.1628 86.13 94.2519 85.2252 94.5925 84.4029C94.9331 83.5807 95.5099 82.8779 96.2499 82.3834C96.99 81.8889 97.86 81.625 98.75 81.625C99.9435 81.625 101.088 82.0991 101.932 82.943C102.776 83.7869 103.25 84.9315 103.25 86.125ZM102.125 70.375H83C82.4033 70.375 81.831 70.6121 81.409 71.034C80.9871 71.456 80.75 72.0283 80.75 72.625V88.375C80.75 88.9717 80.9871 89.544 81.409 89.966C81.831 90.3879 82.4033 90.625 83 90.625H93.7325C92.5753 89.3425 91.9547 87.6646 91.999 85.9377C92.0433 84.2109 92.749 82.567 93.9705 81.3455C95.192 80.124 96.8359 79.4183 98.5627 79.374C100.29 79.3297 101.968 79.9503 103.25 81.1075V76C103.25 75.7016 103.131 75.4155 102.92 75.2045C102.71 74.9935 102.423 74.875 102.125 74.875H84.125C83.8266 74.875 83.5405 74.7565 83.3295 74.5455C83.1185 74.3345 83 74.0484 83 73.75C83 73.4516 83.1185 73.1655 83.3295 72.9545C83.5405 72.7435 83.8266 72.625 84.125 72.625H103.25V71.5C103.25 71.2016 103.131 70.9155 102.92 70.7045C102.71 70.4935 102.423 70.375 102.125 70.375Z" fill="#4C49ED"/>
<path d="M113.844 88.5V73.548H124.281V76.635H117.729V79.365H123.861V82.431H117.729V88.5H113.844ZM125.898 88.5V77.832H129.699V88.5H125.898ZM125.793 72.603H129.762V76.026H125.793V72.603ZM139.108 77.538C140.368 77.538 141.306 77.923 141.922 78.693C142.552 79.449 142.867 80.597 142.867 82.137V88.5H139.066V82.305C139.066 81.647 138.954 81.178 138.73 80.898C138.506 80.604 138.156 80.457 137.68 80.457C137.106 80.457 136.644 80.653 136.294 81.045C135.944 81.423 135.769 81.927 135.769 82.557V88.5H131.968V80.898C131.968 79.75 131.912 78.728 131.8 77.832H135.37L135.559 79.407C135.965 78.805 136.469 78.343 137.071 78.021C137.673 77.699 138.352 77.538 139.108 77.538Z" fill="black"/>
<path d="M156.307 77.832V88.5H152.569V87.051C152.261 87.555 151.813 87.954 151.225 88.248C150.637 88.528 149.993 88.668 149.293 88.668C148.383 88.668 147.571 88.444 146.857 87.996C146.143 87.548 145.583 86.911 145.177 86.085C144.785 85.245 144.589 84.279 144.589 83.187C144.589 82.081 144.792 81.101 145.198 80.247C145.604 79.393 146.164 78.728 146.878 78.252C147.592 77.776 148.397 77.538 149.293 77.538C149.993 77.538 150.63 77.692 151.204 78C151.792 78.294 152.247 78.693 152.569 79.197V77.832H156.307ZM150.469 85.833C151.141 85.833 151.659 85.602 152.023 85.14C152.387 84.678 152.569 84.013 152.569 83.145C152.569 82.263 152.387 81.591 152.023 81.129C151.659 80.653 151.141 80.415 150.469 80.415C149.811 80.415 149.293 80.66 148.915 81.15C148.537 81.626 148.348 82.305 148.348 83.187C148.348 84.041 148.53 84.699 148.894 85.161C149.258 85.609 149.783 85.833 150.469 85.833ZM165.602 77.538C166.512 77.538 167.324 77.776 168.038 78.252C168.752 78.728 169.312 79.393 169.718 80.247C170.124 81.101 170.327 82.081 170.327 83.187C170.327 84.279 170.124 85.245 169.718 86.085C169.326 86.911 168.773 87.548 168.059 87.996C167.345 88.444 166.526 88.668 165.602 88.668C164.902 88.668 164.265 88.535 163.691 88.269C163.117 87.989 162.676 87.604 162.368 87.114V93.036H158.567V80.898C158.567 79.75 158.511 78.728 158.399 77.832H161.969L162.179 79.491C162.445 78.903 162.886 78.434 163.502 78.084C164.118 77.72 164.818 77.538 165.602 77.538ZM164.447 85.833C165.133 85.833 165.651 85.609 166.001 85.161C166.351 84.713 166.526 84.055 166.526 83.187C166.526 82.305 166.344 81.626 165.98 81.15C165.63 80.66 165.119 80.415 164.447 80.415C163.761 80.415 163.236 80.646 162.872 81.108C162.508 81.57 162.326 82.249 162.326 83.145C162.326 84.013 162.508 84.678 162.872 85.14C163.236 85.602 163.761 85.833 164.447 85.833ZM179.137 77.538C180.047 77.538 180.859 77.776 181.573 78.252C182.287 78.728 182.847 79.393 183.253 80.247C183.659 81.101 183.862 82.081 183.862 83.187C183.862 84.279 183.659 85.245 183.253 86.085C182.861 86.911 182.308 87.548 181.594 87.996C180.88 88.444 180.061 88.668 179.137 88.668C178.437 88.668 177.8 88.535 177.226 88.269C176.652 87.989 176.211 87.604 175.903 87.114V93.036H172.102V80.898C172.102 79.75 172.046 78.728 171.934 77.832H175.504L175.714 79.491C175.98 78.903 176.421 78.434 177.037 78.084C177.653 77.72 178.353 77.538 179.137 77.538ZM177.982 85.833C178.668 85.833 179.186 85.609 179.536 85.161C179.886 84.713 180.061 84.055 180.061 83.187C180.061 82.305 179.879 81.626 179.515 81.15C179.165 80.66 178.654 80.415 177.982 80.415C177.296 80.415 176.771 80.646 176.407 81.108C176.043 81.57 175.861 82.249 175.861 83.145C175.861 84.013 176.043 84.678 176.407 85.14C176.771 85.602 177.296 85.833 177.982 85.833Z" fill="#4C49ED"/>
<rect x="29" y="192" width="206" height="53.6" rx="6" fill="#E4E3FF"/>
<path d="M58.5 210.55C58.5 209.953 58.7371 209.381 59.159 208.959C59.581 208.537 60.1533 208.3 60.75 208.3H65.25C65.8467 208.3 66.419 208.537 66.841 208.959C67.2629 209.381 67.5 209.953 67.5 210.55V215.05C67.5 215.647 67.2629 216.219 66.841 216.641C66.419 217.063 65.8467 217.3 65.25 217.3H60.75C60.1533 217.3 59.581 217.063 59.159 216.641C58.7371 216.219 58.5 215.647 58.5 215.05V210.55ZM70.5 210.55C70.5 209.953 70.7371 209.381 71.159 208.959C71.581 208.537 72.1533 208.3 72.75 208.3H77.25C77.8467 208.3 78.419 208.537 78.841 208.959C79.2629 209.381 79.5 209.953 79.5 210.55V215.05C79.5 215.647 79.2629 216.219 78.841 216.641C78.419 217.063 77.8467 217.3 77.25 217.3H72.75C72.1533 217.3 71.581 217.063 71.159 216.641C70.7371 216.219 70.5 215.647 70.5 215.05V210.55ZM58.5 222.55C58.5 221.953 58.7371 221.381 59.159 220.959C59.581 220.537 60.1533 220.3 60.75 220.3H65.25C65.8467 220.3 66.419 220.537 66.841 220.959C67.2629 221.381 67.5 221.953 67.5 222.55V227.05C67.5 227.647 67.2629 228.219 66.841 228.641C66.419 229.063 65.8467 229.3 65.25 229.3H60.75C60.1533 229.3 59.581 229.063 59.159 228.641C58.7371 228.219 58.5 227.647 58.5 227.05V222.55ZM70.5 222.55C70.5 221.953 70.7371 221.381 71.159 220.959C71.581 220.537 72.1533 220.3 72.75 220.3H77.25C77.8467 220.3 78.419 220.537 78.841 220.959C79.2629 221.381 79.5 221.953 79.5 222.55V227.05C79.5 227.647 79.2629 228.219 78.841 228.641C78.419 229.063 77.8467 229.3 77.25 229.3H72.75C72.1533 229.3 71.581 229.063 71.159 228.641C70.7371 228.219 70.5 227.647 70.5 227.05V222.55Z" fill="#4C49ED"/>
<path d="M98.207 212.896H102.882C104.208 212.896 105.347 213.134 106.299 213.61C107.251 214.086 107.976 214.777 108.475 215.684C108.985 216.591 109.24 217.673 109.24 218.931C109.24 220.2 108.991 221.288 108.492 222.195C107.993 223.102 107.268 223.799 106.316 224.286C105.364 224.762 104.219 225 102.882 225H98.207V212.896ZM102.712 222.858C105.296 222.858 106.588 221.549 106.588 218.931C106.588 216.336 105.296 215.038 102.712 215.038H100.859V222.858H102.712ZM119.788 216.381V225H117.255V223.725C116.995 224.167 116.626 224.513 116.15 224.762C115.674 225.011 115.136 225.136 114.535 225.136C113.787 225.136 113.124 224.955 112.546 224.592C111.98 224.229 111.532 223.714 111.203 223.045C110.886 222.365 110.727 221.583 110.727 220.699C110.727 219.815 110.886 219.027 111.203 218.336C111.532 217.645 111.985 217.112 112.563 216.738C113.141 216.353 113.799 216.16 114.535 216.16C115.136 216.16 115.674 216.29 116.15 216.551C116.626 216.812 116.995 217.163 117.255 217.605V216.381H119.788ZM115.283 223.181C115.918 223.181 116.405 222.966 116.745 222.535C117.085 222.104 117.255 221.481 117.255 220.665C117.255 219.849 117.085 219.226 116.745 218.795C116.405 218.353 115.918 218.132 115.283 218.132C114.649 218.132 114.156 218.359 113.804 218.812C113.453 219.265 113.277 219.894 113.277 220.699C113.277 221.504 113.447 222.121 113.787 222.552C114.139 222.971 114.637 223.181 115.283 223.181ZM125.158 225.136C123.526 225.136 122.24 224.785 121.299 224.082L121.979 222.297C122.433 222.626 122.937 222.881 123.492 223.062C124.048 223.232 124.614 223.317 125.192 223.317C125.634 223.317 125.974 223.249 126.212 223.113C126.45 222.977 126.569 222.779 126.569 222.518C126.569 222.303 126.484 222.133 126.314 222.008C126.144 221.883 125.844 221.776 125.413 221.685L124.002 221.362C123.175 221.181 122.563 220.892 122.166 220.495C121.781 220.098 121.588 219.571 121.588 218.914C121.588 218.381 121.741 217.905 122.047 217.486C122.365 217.067 122.801 216.744 123.356 216.517C123.912 216.279 124.552 216.16 125.277 216.16C125.889 216.16 126.49 216.256 127.079 216.449C127.669 216.63 128.196 216.891 128.66 217.231L127.946 218.948C127.504 218.642 127.051 218.41 126.586 218.251C126.133 218.092 125.691 218.013 125.26 218.013C124.841 218.013 124.512 218.087 124.274 218.234C124.036 218.381 123.917 218.585 123.917 218.846C123.917 219.039 123.985 219.197 124.121 219.322C124.269 219.435 124.524 219.532 124.886 219.611L126.331 219.934C127.215 220.138 127.856 220.444 128.252 220.852C128.649 221.26 128.847 221.804 128.847 222.484C128.847 223.3 128.519 223.946 127.861 224.422C127.204 224.898 126.303 225.136 125.158 225.136ZM135.731 216.16C137.771 216.16 138.791 217.367 138.791 219.781V225H136.224V219.9C136.224 219.299 136.111 218.863 135.884 218.591C135.669 218.308 135.323 218.166 134.847 218.166C134.28 218.166 133.827 218.347 133.487 218.71C133.147 219.073 132.977 219.56 132.977 220.172V225H130.41V212.488H132.977V217.554C133.283 217.101 133.674 216.755 134.15 216.517C134.626 216.279 135.153 216.16 135.731 216.16ZM146.106 216.16C146.854 216.16 147.517 216.347 148.095 216.721C148.673 217.084 149.12 217.605 149.438 218.285C149.755 218.954 149.914 219.73 149.914 220.614C149.914 221.498 149.749 222.286 149.421 222.977C149.103 223.657 148.656 224.19 148.078 224.575C147.5 224.949 146.842 225.136 146.106 225.136C145.505 225.136 144.961 225.011 144.474 224.762C143.998 224.501 143.635 224.15 143.386 223.708V225H140.836V212.488H143.403V217.588C143.652 217.146 144.015 216.8 144.491 216.551C144.978 216.29 145.516 216.16 146.106 216.16ZM145.375 223.181C146.009 223.181 146.497 222.96 146.837 222.518C147.177 222.076 147.347 221.441 147.347 220.614C147.347 219.821 147.177 219.209 146.837 218.778C146.497 218.347 146.009 218.132 145.375 218.132C144.74 218.132 144.247 218.353 143.896 218.795C143.556 219.226 143.386 219.843 143.386 220.648C143.386 221.464 143.556 222.093 143.896 222.535C144.247 222.966 144.74 223.181 145.375 223.181ZM155.674 225.136C154.756 225.136 153.952 224.955 153.26 224.592C152.58 224.229 152.053 223.708 151.679 223.028C151.317 222.348 151.135 221.555 151.135 220.648C151.135 219.741 151.317 218.948 151.679 218.268C152.053 217.588 152.58 217.067 153.26 216.704C153.952 216.341 154.756 216.16 155.674 216.16C156.581 216.16 157.374 216.341 158.054 216.704C158.734 217.067 159.256 217.588 159.618 218.268C159.992 218.948 160.179 219.741 160.179 220.648C160.179 221.555 159.992 222.348 159.618 223.028C159.256 223.708 158.734 224.229 158.054 224.592C157.374 224.955 156.581 225.136 155.674 225.136ZM155.674 223.181C156.309 223.181 156.791 222.971 157.119 222.552C157.459 222.133 157.629 221.498 157.629 220.648C157.629 219.809 157.459 219.18 157.119 218.761C156.791 218.33 156.309 218.115 155.674 218.115C155.028 218.115 154.535 218.33 154.195 218.761C153.855 219.18 153.685 219.809 153.685 220.648C153.685 222.337 154.348 223.181 155.674 223.181ZM170.456 216.381V225H167.923V223.725C167.663 224.167 167.294 224.513 166.818 224.762C166.342 225.011 165.804 225.136 165.203 225.136C164.455 225.136 163.792 224.955 163.214 224.592C162.648 224.229 162.2 223.714 161.871 223.045C161.554 222.365 161.395 221.583 161.395 220.699C161.395 219.815 161.554 219.027 161.871 218.336C162.2 217.645 162.653 217.112 163.231 216.738C163.809 216.353 164.467 216.16 165.203 216.16C165.804 216.16 166.342 216.29 166.818 216.551C167.294 216.812 167.663 217.163 167.923 217.605V216.381H170.456ZM165.951 223.181C166.586 223.181 167.073 222.966 167.413 222.535C167.753 222.104 167.923 221.481 167.923 220.665C167.923 219.849 167.753 219.226 167.413 218.795C167.073 218.353 166.586 218.132 165.951 218.132C165.317 218.132 164.824 218.359 164.472 218.812C164.121 219.265 163.945 219.894 163.945 220.699C163.945 221.504 164.115 222.121 164.455 222.552C164.807 222.971 165.305 223.181 165.951 223.181ZM177.543 216.177C177.906 216.177 178.212 216.234 178.461 216.347L178.444 218.693C178.025 218.5 177.606 218.404 177.186 218.404C176.506 218.404 175.985 218.591 175.622 218.965C175.271 219.328 175.095 219.838 175.095 220.495V225H172.528V218.846C172.528 217.928 172.483 217.106 172.392 216.381H174.806L174.976 217.86C175.192 217.316 175.526 216.902 175.979 216.619C176.444 216.324 176.965 216.177 177.543 216.177ZM187.971 212.488V225H185.438V223.725C185.177 224.167 184.809 224.513 184.333 224.762C183.857 225.011 183.319 225.136 182.718 225.136C181.981 225.136 181.324 224.949 180.746 224.575C180.168 224.19 179.715 223.657 179.386 222.977C179.069 222.286 178.91 221.498 178.91 220.614C178.91 219.73 179.069 218.954 179.386 218.285C179.715 217.605 180.162 217.084 180.729 216.721C181.307 216.347 181.97 216.16 182.718 216.16C183.296 216.16 183.823 216.285 184.299 216.534C184.775 216.772 185.143 217.106 185.404 217.537V212.488H187.971ZM183.466 223.181C184.101 223.181 184.588 222.966 184.928 222.535C185.268 222.093 185.438 221.464 185.438 220.648C185.438 219.843 185.262 219.226 184.911 218.795C184.571 218.353 184.089 218.132 183.466 218.132C182.831 218.132 182.338 218.347 181.987 218.778C181.636 219.209 181.46 219.821 181.46 220.614C181.46 221.43 181.636 222.065 181.987 222.518C182.338 222.96 182.831 223.181 183.466 223.181Z" fill="#4C49ED"/>
<g clip-path="url(#clip0_19_13)">
<path d="M75 282.4H63C62.2044 282.4 61.4413 282.716 60.8787 283.279C60.3161 283.841 60 284.604 60 285.4V303.4C60 304.196 60.3161 304.959 60.8787 305.521C61.4413 306.084 62.2044 306.4 63 306.4H75C75.7956 306.4 76.5587 306.084 77.1213 305.521C77.6839 304.959 78 304.196 78 303.4V285.4C78 284.604 77.6839 283.841 77.1213 283.279C76.5587 282.716 75.7956 282.4 75 282.4V282.4ZM64.5 288.4H73.5C73.6989 288.4 73.8897 288.479 74.0303 288.62C74.171 288.76 74.25 288.951 74.25 289.15C74.25 289.349 74.171 289.54 74.0303 289.68C73.8897 289.821 73.6989 289.9 73.5 289.9H64.5C64.3011 289.9 64.1103 289.821 63.9697 289.68C63.829 289.54 63.75 289.349 63.75 289.15C63.75 288.951 63.829 288.76 63.9697 288.62C64.1103 288.479 64.3011 288.4 64.5 288.4ZM63.75 292.15C63.75 291.951 63.829 291.76 63.9697 291.62C64.1103 291.479 64.3011 291.4 64.5 291.4H73.5C73.6989 291.4 73.8897 291.479 74.0303 291.62C74.171 291.76 74.25 291.951 74.25 292.15C74.25 292.349 74.171 292.54 74.0303 292.68C73.8897 292.821 73.6989 292.9 73.5 292.9H64.5C64.3011 292.9 64.1103 292.821 63.9697 292.68C63.829 292.54 63.75 292.349 63.75 292.15ZM64.5 294.4H73.5C73.6989 294.4 73.8897 294.479 74.0303 294.62C74.171 294.76 74.25 294.951 74.25 295.15C74.25 295.349 74.171 295.54 74.0303 295.68C73.8897 295.821 73.6989 295.9 73.5 295.9H64.5C64.3011 295.9 64.1103 295.821 63.9697 295.68C63.829 295.54 63.75 295.349 63.75 295.15C63.75 294.951 63.829 294.76 63.9697 294.62C64.1103 294.479 64.3011 294.4 64.5 294.4ZM64.5 297.4H69C69.1989 297.4 69.3897 297.479 69.5303 297.62C69.671 297.76 69.75 297.951 69.75 298.15C69.75 298.349 69.671 298.54 69.5303 298.68C69.3897 298.821 69.1989 298.9 69 298.9H64.5C64.3011 298.9 64.1103 298.821 63.9697 298.68C63.829 298.54 63.75 298.349 63.75 298.15C63.75 297.951 63.829 297.76 63.9697 297.62C64.1103 297.479 64.3011 297.4 64.5 297.4Z" fill="#A4A3C1"/>
</g>
<path d="M98.224 300.6V288.615H100.876V300.6H98.224ZM103.134 300.6V294.225C103.134 293.862 103.123 293.494 103.1 293.12C103.077 292.735 103.043 292.355 102.998 291.981H105.463L105.65 293.579H105.446C105.729 293.012 106.132 292.576 106.653 292.27C107.174 291.964 107.781 291.811 108.472 291.811C109.481 291.811 110.234 292.106 110.733 292.695C111.243 293.273 111.498 294.174 111.498 295.398V300.6H108.931V295.517C108.931 294.894 108.818 294.452 108.591 294.191C108.364 293.93 108.024 293.8 107.571 293.8C107.004 293.8 106.551 293.981 106.211 294.344C105.871 294.695 105.701 295.171 105.701 295.772V300.6H103.134ZM115.976 300.6L112.253 291.981H114.956L117.421 298.237H116.86L119.41 291.981H121.943L118.186 300.6H115.976ZM126.721 300.787C125.803 300.787 125.004 300.606 124.324 300.243C123.655 299.869 123.134 299.348 122.76 298.679C122.397 298.01 122.216 297.211 122.216 296.282C122.216 295.364 122.397 294.571 122.76 293.902C123.134 293.233 123.655 292.718 124.324 292.355C125.004 291.992 125.803 291.811 126.721 291.811C127.639 291.811 128.438 291.992 129.118 292.355C129.798 292.718 130.319 293.233 130.682 293.902C131.056 294.571 131.243 295.364 131.243 296.282C131.243 297.211 131.056 298.01 130.682 298.679C130.319 299.348 129.798 299.869 129.118 300.243C128.438 300.606 127.639 300.787 126.721 300.787ZM126.721 298.849C127.31 298.849 127.775 298.639 128.115 298.22C128.466 297.801 128.642 297.155 128.642 296.282C128.642 295.409 128.466 294.769 128.115 294.361C127.775 293.953 127.31 293.749 126.721 293.749C126.132 293.749 125.661 293.953 125.31 294.361C124.97 294.769 124.8 295.409 124.8 296.282C124.8 297.155 124.97 297.801 125.31 298.22C125.661 298.639 126.132 298.849 126.721 298.849ZM132.901 300.6V291.981H135.468V300.6H132.901ZM132.799 290.57V288.173H135.553V290.57H132.799ZM141.714 300.787C140.796 300.787 139.991 300.606 139.3 300.243C138.608 299.88 138.076 299.359 137.702 298.679C137.328 297.999 137.141 297.194 137.141 296.265C137.141 295.324 137.328 294.525 137.702 293.868C138.087 293.199 138.62 292.689 139.3 292.338C139.991 291.987 140.796 291.811 141.714 291.811C142.292 291.811 142.853 291.896 143.397 292.066C143.952 292.236 144.405 292.474 144.757 292.78L144.009 294.548C143.725 294.287 143.397 294.095 143.023 293.97C142.66 293.834 142.309 293.766 141.969 293.766C141.277 293.766 140.739 293.981 140.354 294.412C139.968 294.843 139.776 295.466 139.776 296.282C139.776 297.098 139.968 297.721 140.354 298.152C140.739 298.583 141.277 298.798 141.969 298.798C142.297 298.798 142.643 298.736 143.006 298.611C143.38 298.486 143.714 298.299 144.009 298.05L144.757 299.801C144.394 300.107 143.935 300.351 143.38 300.532C142.836 300.702 142.28 300.787 141.714 300.787ZM150.384 300.787C148.888 300.787 147.721 300.385 146.882 299.58C146.043 298.775 145.624 297.682 145.624 296.299C145.624 295.404 145.8 294.622 146.151 293.953C146.514 293.284 147.012 292.763 147.647 292.389C148.293 292.004 149.047 291.811 149.908 291.811C150.758 291.811 151.466 291.992 152.033 292.355C152.611 292.718 153.042 293.228 153.325 293.885C153.62 294.531 153.767 295.285 153.767 296.146V296.741H147.732V295.466H151.897L151.608 295.704C151.608 294.99 151.461 294.452 151.166 294.089C150.883 293.715 150.469 293.528 149.925 293.528C149.324 293.528 148.86 293.749 148.531 294.191C148.214 294.633 148.055 295.268 148.055 296.095V296.367C148.055 297.206 148.259 297.829 148.667 298.237C149.086 298.645 149.687 298.849 150.469 298.849C150.934 298.849 151.37 298.792 151.778 298.679C152.197 298.554 152.594 298.362 152.968 298.101L153.682 299.801C153.251 300.118 152.753 300.362 152.186 300.532C151.631 300.702 151.03 300.787 150.384 300.787Z" fill="#A4A3C1"/>
<g clip-path="url(#clip1_19_13)">
<path d="M59.25 361C58.6533 361 58.081 361.237 57.659 361.659C57.2371 362.081 57 362.653 57 363.25V366.25H66C66.1989 366.25 66.3897 366.329 66.5303 366.47C66.671 366.61 66.75 366.801 66.75 367C66.75 367.379 66.87 367.966 67.209 368.437C67.5195 368.869 68.0445 369.25 69 369.25C69.9555 369.25 70.4805 368.869 70.791 368.437C71.13 367.966 71.25 367.379 71.25 367C71.25 366.801 71.329 366.61 71.4697 366.47C71.6103 366.329 71.8011 366.25 72 366.25H81V363.25C81 362.653 80.7629 362.081 80.341 361.659C79.919 361.237 79.3467 361 78.75 361H59.25Z" fill="#A4A3C1"/>
<path d="M81 367.75H72.6735C72.5659 368.312 72.3394 368.845 72.009 369.313C71.4195 370.132 70.4445 370.75 69 370.75C67.5555 370.75 66.5805 370.132 65.991 369.313C65.6607 368.845 65.4341 368.312 65.3265 367.75H57V376.75C57 377.347 57.2371 377.919 57.659 378.341C58.081 378.763 58.6533 379 59.25 379H78.75C79.3467 379 79.919 378.763 80.341 378.341C80.7629 377.919 81 377.347 81 376.75V367.75Z" fill="#A4A3C1"/>
</g>
<path d="M101.59 376.2L97.34 364.215H100.077L103.12 373.463H102.389L105.704 364.215H107.642L110.685 373.463H110.005L113.235 364.215H115.802L111.518 376.2H109.359L106.418 367.683H106.809L103.766 376.2H101.59ZM119.499 376.387C118.751 376.387 118.093 376.206 117.527 375.843C116.96 375.48 116.518 374.965 116.201 374.296C115.883 373.627 115.725 372.823 115.725 371.882C115.725 370.953 115.883 370.154 116.201 369.485C116.518 368.816 116.96 368.306 117.527 367.955C118.093 367.592 118.751 367.411 119.499 367.411C120.19 367.411 120.808 367.581 121.352 367.921C121.907 368.25 122.27 368.697 122.44 369.264H122.253L122.457 367.581H124.922C124.888 367.955 124.854 368.335 124.82 368.72C124.797 369.094 124.786 369.462 124.786 369.825V376.2H122.236L122.219 374.585H122.423C122.241 375.129 121.879 375.565 121.335 375.894C120.791 376.223 120.179 376.387 119.499 376.387ZM120.281 374.449C120.87 374.449 121.346 374.239 121.709 373.82C122.071 373.401 122.253 372.755 122.253 371.882C122.253 371.009 122.071 370.369 121.709 369.961C121.346 369.553 120.87 369.349 120.281 369.349C119.691 369.349 119.215 369.553 118.853 369.961C118.49 370.369 118.309 371.009 118.309 371.882C118.309 372.755 118.484 373.401 118.836 373.82C119.198 374.239 119.68 374.449 120.281 374.449ZM126.891 376.2V363.688H129.458V376.2H126.891ZM131.556 376.2V363.688H134.123V376.2H131.556ZM140.556 376.387C139.06 376.387 137.893 375.985 137.054 375.18C136.215 374.375 135.796 373.282 135.796 371.899C135.796 371.004 135.972 370.222 136.323 369.553C136.686 368.884 137.184 368.363 137.819 367.989C138.465 367.604 139.219 367.411 140.08 367.411C140.93 367.411 141.638 367.592 142.205 367.955C142.783 368.318 143.214 368.828 143.497 369.485C143.792 370.131 143.939 370.885 143.939 371.746V372.341H137.904V371.066H142.069L141.78 371.304C141.78 370.59 141.633 370.052 141.338 369.689C141.055 369.315 140.641 369.128 140.097 369.128C139.496 369.128 139.032 369.349 138.703 369.791C138.386 370.233 138.227 370.868 138.227 371.695V371.967C138.227 372.806 138.431 373.429 138.839 373.837C139.258 374.245 139.859 374.449 140.641 374.449C141.106 374.449 141.542 374.392 141.95 374.279C142.369 374.154 142.766 373.962 143.14 373.701L143.854 375.401C143.423 375.718 142.925 375.962 142.358 376.132C141.803 376.302 141.202 376.387 140.556 376.387ZM149.547 376.387C148.425 376.387 147.581 376.109 147.014 375.554C146.447 374.987 146.164 374.143 146.164 373.021V369.502H144.532V367.581H146.164V365.473L148.731 364.844V367.581H150.941V369.502H148.731V372.885C148.731 373.429 148.844 373.803 149.071 374.007C149.298 374.211 149.587 374.313 149.938 374.313C150.153 374.313 150.329 374.302 150.465 374.279C150.612 374.245 150.765 374.2 150.924 374.143V376.132C150.709 376.223 150.482 376.285 150.244 376.319C150.006 376.364 149.774 376.387 149.547 376.387ZM155.437 376.387C154.666 376.387 153.964 376.302 153.329 376.132C152.694 375.962 152.156 375.724 151.714 375.418L152.377 373.718C152.819 373.99 153.306 374.205 153.839 374.364C154.383 374.523 154.921 374.602 155.454 374.602C155.953 374.602 156.321 374.523 156.559 374.364C156.797 374.205 156.916 373.99 156.916 373.718C156.916 373.491 156.837 373.316 156.678 373.191C156.531 373.066 156.298 372.976 155.981 372.919L154.23 372.596C153.493 372.449 152.932 372.177 152.547 371.78C152.162 371.383 151.969 370.868 151.969 370.233C151.969 369.678 152.116 369.19 152.411 368.771C152.717 368.34 153.153 368.006 153.72 367.768C154.287 367.53 154.95 367.411 155.709 367.411C156.355 367.411 156.967 367.49 157.545 367.649C158.123 367.808 158.616 368.051 159.024 368.38L158.327 370.029C157.976 369.768 157.568 369.559 157.103 369.4C156.65 369.241 156.213 369.162 155.794 369.162C155.25 369.162 154.859 369.253 154.621 369.434C154.383 369.604 154.264 369.825 154.264 370.097C154.264 370.301 154.332 370.471 154.468 370.607C154.615 370.743 154.836 370.845 155.131 370.913L156.899 371.236C157.658 371.372 158.236 371.627 158.633 372.001C159.03 372.375 159.228 372.891 159.228 373.548C159.228 374.149 159.069 374.659 158.752 375.078C158.435 375.497 157.987 375.82 157.409 376.047C156.842 376.274 156.185 376.387 155.437 376.387Z" fill="#A4A3C1"/>
<path d="M58.5 450.1C58.5 449.702 58.658 449.321 58.9393 449.039C59.2206 448.758 59.6022 448.6 60 448.6H63C63.3978 448.6 63.7794 448.758 64.0607 449.039C64.342 449.321 64.5 449.702 64.5 450.1V454.6C64.5 454.998 64.342 455.379 64.0607 455.661C63.7794 455.942 63.3978 456.1 63 456.1H60C59.6022 456.1 59.2206 455.942 58.9393 455.661C58.658 455.379 58.5 454.998 58.5 454.6V450.1ZM66 444.1C66 443.702 66.158 443.321 66.4393 443.039C66.7206 442.758 67.1022 442.6 67.5 442.6H70.5C70.8978 442.6 71.2794 442.758 71.5607 443.039C71.842 443.321 72 443.702 72 444.1V454.6C72 454.998 71.842 455.379 71.5607 455.661C71.2794 455.942 70.8978 456.1 70.5 456.1H67.5C67.1022 456.1 66.7206 455.942 66.4393 455.661C66.158 455.379 66 454.998 66 454.6V444.1ZM73.5 436.6C73.5 436.202 73.658 435.821 73.9393 435.539C74.2206 435.258 74.6022 435.1 75 435.1H78C78.3978 435.1 78.7794 435.258 79.0607 435.539C79.342 435.821 79.5 436.202 79.5 436.6V454.6C79.5 454.998 79.342 455.379 79.0607 455.661C78.7794 455.942 78.3978 456.1 78 456.1H75C74.6022 456.1 74.2206 455.942 73.9393 455.661C73.658 455.379 73.5 454.998 73.5 454.6V436.6Z" fill="#A4A3C1"/>
<path d="M98.224 451.8V439.815H103.664C105.013 439.815 106.055 440.138 106.792 440.784C107.529 441.419 107.897 442.308 107.897 443.453C107.897 444.201 107.727 444.847 107.387 445.391C107.058 445.924 106.582 446.337 105.959 446.632C105.347 446.915 104.61 447.057 103.749 447.057L103.953 446.683H104.65C105.137 446.683 105.568 446.813 105.942 447.074C106.327 447.335 106.645 447.714 106.894 448.213L108.679 451.8H105.755L103.902 447.941C103.766 447.612 103.551 447.397 103.256 447.295C102.973 447.182 102.644 447.125 102.27 447.125H100.876V451.8H98.224ZM100.876 445.221H103.205C103.896 445.221 104.423 445.079 104.786 444.796C105.149 444.513 105.33 444.093 105.33 443.538C105.33 442.983 105.149 442.569 104.786 442.297C104.423 442.014 103.896 441.872 103.205 441.872H100.876V445.221ZM114.193 451.987C112.697 451.987 111.529 451.585 110.691 450.78C109.852 449.975 109.433 448.882 109.433 447.499C109.433 446.604 109.608 445.822 109.96 445.153C110.322 444.484 110.821 443.963 111.456 443.589C112.102 443.204 112.855 443.011 113.717 443.011C114.567 443.011 115.275 443.192 115.842 443.555C116.42 443.918 116.85 444.428 117.134 445.085C117.428 445.731 117.576 446.485 117.576 447.346V447.941H111.541V446.666H115.706L115.417 446.904C115.417 446.19 115.269 445.652 114.975 445.289C114.691 444.915 114.278 444.728 113.734 444.728C113.133 444.728 112.668 444.949 112.34 445.391C112.022 445.833 111.864 446.468 111.864 447.295V447.567C111.864 448.406 112.068 449.029 112.476 449.437C112.895 449.845 113.496 450.049 114.278 450.049C114.742 450.049 115.179 449.992 115.587 449.879C116.006 449.754 116.403 449.562 116.777 449.301L117.491 451.001C117.06 451.318 116.561 451.562 115.995 451.732C115.439 451.902 114.839 451.987 114.193 451.987ZM119.204 455.472V445.425C119.204 445.062 119.193 444.694 119.17 444.32C119.148 443.935 119.114 443.555 119.068 443.181H121.533L121.737 444.864H121.55C121.72 444.297 122.077 443.85 122.621 443.521C123.165 443.181 123.789 443.011 124.491 443.011C125.239 443.011 125.897 443.192 126.463 443.555C127.03 443.906 127.472 444.416 127.789 445.085C128.118 445.754 128.282 446.553 128.282 447.482C128.282 448.423 128.118 449.227 127.789 449.896C127.472 450.565 127.03 451.08 126.463 451.443C125.897 451.806 125.239 451.987 124.491 451.987C123.8 451.987 123.182 451.823 122.638 451.494C122.106 451.165 121.749 450.729 121.567 450.185H121.771V455.472H119.204ZM123.709 450.049C124.31 450.049 124.792 449.839 125.154 449.42C125.517 449.001 125.698 448.355 125.698 447.482C125.698 446.609 125.517 445.969 125.154 445.561C124.792 445.153 124.31 444.949 123.709 444.949C123.12 444.949 122.638 445.153 122.264 445.561C121.902 445.969 121.72 446.609 121.72 447.482C121.72 448.355 121.902 449.001 122.264 449.42C122.638 449.839 123.12 450.049 123.709 450.049ZM134.026 451.987C133.108 451.987 132.309 451.806 131.629 451.443C130.96 451.069 130.439 450.548 130.065 449.879C129.702 449.21 129.521 448.411 129.521 447.482C129.521 446.564 129.702 445.771 130.065 445.102C130.439 444.433 130.96 443.918 131.629 443.555C132.309 443.192 133.108 443.011 134.026 443.011C134.944 443.011 135.743 443.192 136.423 443.555C137.103 443.918 137.624 444.433 137.987 445.102C138.361 445.771 138.548 446.564 138.548 447.482C138.548 448.411 138.361 449.21 137.987 449.879C137.624 450.548 137.103 451.069 136.423 451.443C135.743 451.806 134.944 451.987 134.026 451.987ZM134.026 450.049C134.615 450.049 135.08 449.839 135.42 449.42C135.771 449.001 135.947 448.355 135.947 447.482C135.947 446.609 135.771 445.969 135.42 445.561C135.08 445.153 134.615 444.949 134.026 444.949C133.436 444.949 132.966 445.153 132.615 445.561C132.275 445.969 132.105 446.609 132.105 447.482C132.105 448.355 132.275 449.001 132.615 449.42C132.966 449.839 133.436 450.049 134.026 450.049ZM140.188 451.8V445.459C140.188 445.085 140.177 444.705 140.154 444.32C140.143 443.935 140.115 443.555 140.069 443.181H142.534L142.823 445.697H142.432C142.546 445.085 142.727 444.581 142.976 444.184C143.237 443.787 143.554 443.493 143.928 443.3C144.314 443.107 144.75 443.011 145.237 443.011C145.453 443.011 145.623 443.022 145.747 443.045C145.872 443.056 145.997 443.085 146.121 443.13L146.104 445.391C145.866 445.289 145.662 445.227 145.492 445.204C145.334 445.17 145.13 445.153 144.88 445.153C144.404 445.153 144.008 445.244 143.69 445.425C143.384 445.606 143.152 445.873 142.993 446.224C142.846 446.575 142.772 447 142.772 447.499V451.8H140.188ZM151.722 451.987C150.6 451.987 149.755 451.709 149.189 451.154C148.622 450.587 148.339 449.743 148.339 448.621V445.102H146.707V443.181H148.339V441.073L150.906 440.444V443.181H153.116V445.102H150.906V448.485C150.906 449.029 151.019 449.403 151.246 449.607C151.472 449.811 151.761 449.913 152.113 449.913C152.328 449.913 152.504 449.902 152.64 449.879C152.787 449.845 152.94 449.8 153.099 449.743V451.732C152.883 451.823 152.657 451.885 152.419 451.919C152.181 451.964 151.948 451.987 151.722 451.987ZM157.612 451.987C156.841 451.987 156.139 451.902 155.504 451.732C154.869 451.562 154.331 451.324 153.889 451.018L154.552 449.318C154.994 449.59 155.481 449.805 156.014 449.964C156.558 450.123 157.096 450.202 157.629 450.202C158.128 450.202 158.496 450.123 158.734 449.964C158.972 449.805 159.091 449.59 159.091 449.318C159.091 449.091 159.012 448.916 158.853 448.791C158.706 448.666 158.473 448.576 158.156 448.519L156.405 448.196C155.668 448.049 155.107 447.777 154.722 447.38C154.337 446.983 154.144 446.468 154.144 445.833C154.144 445.278 154.291 444.79 154.586 444.371C154.892 443.94 155.328 443.606 155.895 443.368C156.462 443.13 157.125 443.011 157.884 443.011C158.53 443.011 159.142 443.09 159.72 443.249C160.298 443.408 160.791 443.651 161.199 443.98L160.502 445.629C160.151 445.368 159.743 445.159 159.278 445C158.825 444.841 158.388 444.762 157.969 444.762C157.425 444.762 157.034 444.853 156.796 445.034C156.558 445.204 156.439 445.425 156.439 445.697C156.439 445.901 156.507 446.071 156.643 446.207C156.79 446.343 157.011 446.445 157.306 446.513L159.074 446.836C159.833 446.972 160.411 447.227 160.808 447.601C161.205 447.975 161.403 448.491 161.403 449.148C161.403 449.749 161.244 450.259 160.927 450.678C160.61 451.097 160.162 451.42 159.584 451.647C159.017 451.874 158.36 451.987 157.612 451.987Z" fill="#A4A3C1"/>
<g clip-path="url(#clip2_19_13)">
<path d="M58.9995 513.2C58.9995 510.991 63.477 509.2 69 509.2C74.523 509.2 79.0005 510.991 79.0005 513.2V515.2C79.0005 517.409 74.523 519.2 69 519.2C63.477 519.2 58.9995 517.409 58.9995 515.2V513.2Z" fill="#A4A3C1"/>
<path d="M58.9995 518.701V523.201C58.9995 525.407 63.477 527.2 69 527.2C74.523 527.2 79.0005 525.409 79.0005 523.199V518.701C78.325 519.188 77.59 519.586 76.8135 519.886C74.715 520.726 71.9505 521.2 69 521.2C66.051 521.2 63.2865 520.724 61.188 519.886C60.4115 519.586 59.6765 519.188 59.001 518.701H58.9995Z" fill="#A4A3C1"/>
<path d="M79.0005 526.702C78.3249 527.188 77.59 527.586 76.8135 527.885C74.7135 528.725 71.9505 529.199 68.9985 529.199C66.0495 529.199 63.285 528.725 61.1865 527.885C60.41 527.585 59.675 527.187 58.9995 526.7V529.199C58.9995 531.409 63.477 533.2 69 533.2C74.523 533.2 79.0005 531.409 79.0005 529.199V526.702Z" fill="#A4A3C1"/>
</g>
<path d="M100.995 527.4V517.574H97.187V515.415H107.455V517.574H103.647V527.4H100.995ZM107.367 527.4V521.059C107.367 520.685 107.356 520.305 107.333 519.92C107.322 519.535 107.293 519.155 107.248 518.781H109.713L110.002 521.297H109.611C109.724 520.685 109.906 520.181 110.155 519.784C110.416 519.387 110.733 519.093 111.107 518.9C111.492 518.707 111.929 518.611 112.416 518.611C112.631 518.611 112.801 518.622 112.926 518.645C113.051 518.656 113.175 518.685 113.3 518.73L113.283 520.991C113.045 520.889 112.841 520.827 112.671 520.804C112.512 520.77 112.308 520.753 112.059 520.753C111.583 520.753 111.186 520.844 110.869 521.025C110.563 521.206 110.331 521.473 110.172 521.824C110.025 522.175 109.951 522.6 109.951 523.099V527.4H107.367ZM117.639 527.587C116.891 527.587 116.234 527.406 115.667 527.043C115.101 526.68 114.659 526.165 114.341 525.496C114.024 524.827 113.865 524.023 113.865 523.082C113.865 522.153 114.024 521.354 114.341 520.685C114.659 520.016 115.101 519.506 115.667 519.155C116.234 518.792 116.891 518.611 117.639 518.611C118.331 518.611 118.948 518.781 119.492 519.121C120.048 519.45 120.41 519.897 120.58 520.464H120.393L120.597 518.781H123.062C123.028 519.155 122.994 519.535 122.96 519.92C122.938 520.294 122.926 520.662 122.926 521.025V527.4H120.376L120.359 525.785H120.563C120.382 526.329 120.019 526.765 119.475 527.094C118.931 527.423 118.319 527.587 117.639 527.587ZM118.421 525.649C119.011 525.649 119.487 525.439 119.849 525.02C120.212 524.601 120.393 523.955 120.393 523.082C120.393 522.209 120.212 521.569 119.849 521.161C119.487 520.753 119.011 520.549 118.421 520.549C117.832 520.549 117.356 520.753 116.993 521.161C116.631 521.569 116.449 522.209 116.449 523.082C116.449 523.955 116.625 524.601 116.976 525.02C117.339 525.439 117.821 525.649 118.421 525.649ZM125.032 527.4V521.025C125.032 520.662 125.02 520.294 124.998 519.92C124.975 519.535 124.941 519.155 124.896 518.781H127.361L127.548 520.379H127.344C127.627 519.812 128.029 519.376 128.551 519.07C129.072 518.764 129.678 518.611 130.37 518.611C131.378 518.611 132.132 518.906 132.631 519.495C133.141 520.073 133.396 520.974 133.396 522.198V527.4H130.829V522.317C130.829 521.694 130.715 521.252 130.489 520.991C130.262 520.73 129.922 520.6 129.469 520.6C128.902 520.6 128.449 520.781 128.109 521.144C127.769 521.495 127.599 521.971 127.599 522.572V527.4H125.032ZM138.636 527.587C137.866 527.587 137.163 527.502 136.528 527.332C135.894 527.162 135.355 526.924 134.913 526.618L135.576 524.918C136.018 525.19 136.506 525.405 137.038 525.564C137.582 525.723 138.121 525.802 138.653 525.802C139.152 525.802 139.52 525.723 139.758 525.564C139.996 525.405 140.115 525.19 140.115 524.918C140.115 524.691 140.036 524.516 139.877 524.391C139.73 524.266 139.498 524.176 139.18 524.119L137.429 523.796C136.693 523.649 136.132 523.377 135.746 522.98C135.361 522.583 135.168 522.068 135.168 521.433C135.168 520.878 135.316 520.39 135.61 519.971C135.916 519.54 136.353 519.206 136.919 518.968C137.486 518.73 138.149 518.611 138.908 518.611C139.554 518.611 140.166 518.69 140.744 518.849C141.322 519.008 141.815 519.251 142.223 519.58L141.526 521.229C141.175 520.968 140.767 520.759 140.302 520.6C139.849 520.441 139.413 520.362 138.993 520.362C138.449 520.362 138.058 520.453 137.82 520.634C137.582 520.804 137.463 521.025 137.463 521.297C137.463 521.501 137.531 521.671 137.667 521.807C137.815 521.943 138.036 522.045 138.33 522.113L140.098 522.436C140.858 522.572 141.436 522.827 141.832 523.201C142.229 523.575 142.427 524.091 142.427 524.748C142.427 525.349 142.269 525.859 141.951 526.278C141.634 526.697 141.186 527.02 140.608 527.247C140.042 527.474 139.384 527.587 138.636 527.587ZM147.373 527.587C146.625 527.587 145.967 527.406 145.401 527.043C144.834 526.68 144.392 526.165 144.075 525.496C143.757 524.827 143.599 524.023 143.599 523.082C143.599 522.153 143.757 521.354 144.075 520.685C144.392 520.016 144.834 519.506 145.401 519.155C145.967 518.792 146.625 518.611 147.373 518.611C148.064 518.611 148.682 518.781 149.226 519.121C149.781 519.45 150.144 519.897 150.314 520.464H150.127L150.331 518.781H152.796C152.762 519.155 152.728 519.535 152.694 519.92C152.671 520.294 152.66 520.662 152.66 521.025V527.4H150.11L150.093 525.785H150.297C150.115 526.329 149.753 526.765 149.209 527.094C148.665 527.423 148.053 527.587 147.373 527.587ZM148.155 525.649C148.744 525.649 149.22 525.439 149.583 525.02C149.945 524.601 150.127 523.955 150.127 523.082C150.127 522.209 149.945 521.569 149.583 521.161C149.22 520.753 148.744 520.549 148.155 520.549C147.565 520.549 147.089 520.753 146.727 521.161C146.364 521.569 146.183 522.209 146.183 523.082C146.183 523.955 146.358 524.601 146.71 525.02C147.072 525.439 147.554 525.649 148.155 525.649ZM158.913 527.587C157.995 527.587 157.19 527.406 156.499 527.043C155.808 526.68 155.275 526.159 154.901 525.479C154.527 524.799 154.34 523.994 154.34 523.065C154.34 522.124 154.527 521.325 154.901 520.668C155.286 519.999 155.819 519.489 156.499 519.138C157.19 518.787 157.995 518.611 158.913 518.611C159.491 518.611 160.052 518.696 160.596 518.866C161.151 519.036 161.605 519.274 161.956 519.58L161.208 521.348C160.925 521.087 160.596 520.895 160.222 520.77C159.859 520.634 159.508 520.566 159.168 520.566C158.477 520.566 157.938 520.781 157.553 521.212C157.168 521.643 156.975 522.266 156.975 523.082C156.975 523.898 157.168 524.521 157.553 524.952C157.938 525.383 158.477 525.598 159.168 525.598C159.497 525.598 159.842 525.536 160.205 525.411C160.579 525.286 160.913 525.099 161.208 524.85L161.956 526.601C161.593 526.907 161.134 527.151 160.579 527.332C160.035 527.502 159.48 527.587 158.913 527.587ZM167.493 527.587C166.371 527.587 165.527 527.309 164.96 526.754C164.393 526.187 164.11 525.343 164.11 524.221V520.702H162.478V518.781H164.11V516.673L166.677 516.044V518.781H168.887V520.702H166.677V524.085C166.677 524.629 166.79 525.003 167.017 525.207C167.244 525.411 167.533 525.513 167.884 525.513C168.099 525.513 168.275 525.502 168.411 525.479C168.558 525.445 168.711 525.4 168.87 525.343V527.332C168.655 527.423 168.428 527.485 168.19 527.519C167.952 527.564 167.72 527.587 167.493 527.587ZM170.204 527.4V518.781H172.771V527.4H170.204ZM170.102 517.37V514.973H172.856V517.37H170.102ZM178.949 527.587C178.031 527.587 177.232 527.406 176.552 527.043C175.884 526.669 175.362 526.148 174.988 525.479C174.626 524.81 174.444 524.011 174.444 523.082C174.444 522.164 174.626 521.371 174.988 520.702C175.362 520.033 175.884 519.518 176.552 519.155C177.232 518.792 178.031 518.611 178.949 518.611C179.867 518.611 180.666 518.792 181.346 519.155C182.026 519.518 182.548 520.033 182.91 520.702C183.284 521.371 183.471 522.164 183.471 523.082C183.471 524.011 183.284 524.81 182.91 525.479C182.548 526.148 182.026 526.669 181.346 527.043C180.666 527.406 179.867 527.587 178.949 527.587ZM178.949 525.649C179.539 525.649 180.003 525.439 180.343 525.02C180.695 524.601 180.87 523.955 180.87 523.082C180.87 522.209 180.695 521.569 180.343 521.161C180.003 520.753 179.539 520.549 178.949 520.549C178.36 520.549 177.89 520.753 177.538 521.161C177.198 521.569 177.028 522.209 177.028 523.082C177.028 523.955 177.198 524.601 177.538 525.02C177.89 525.439 178.36 525.649 178.949 525.649ZM185.129 527.4V521.025C185.129 520.662 185.118 520.294 185.095 519.92C185.073 519.535 185.039 519.155 184.993 518.781H187.458L187.645 520.379H187.441C187.725 519.812 188.127 519.376 188.648 519.07C189.17 518.764 189.776 518.611 190.467 518.611C191.476 518.611 192.23 518.906 192.728 519.495C193.238 520.073 193.493 520.974 193.493 522.198V527.4H190.926V522.317C190.926 521.694 190.813 521.252 190.586 520.991C190.36 520.73 190.02 520.6 189.566 520.6C189 520.6 188.546 520.781 188.206 521.144C187.866 521.495 187.696 521.971 187.696 522.572V527.4H185.129ZM198.734 527.587C197.963 527.587 197.261 527.502 196.626 527.332C195.991 527.162 195.453 526.924 195.011 526.618L195.674 524.918C196.116 525.19 196.603 525.405 197.136 525.564C197.68 525.723 198.218 525.802 198.751 525.802C199.25 525.802 199.618 525.723 199.856 525.564C200.094 525.405 200.213 525.19 200.213 524.918C200.213 524.691 200.134 524.516 199.975 524.391C199.828 524.266 199.595 524.176 199.278 524.119L197.527 523.796C196.79 523.649 196.229 523.377 195.844 522.98C195.459 522.583 195.266 522.068 195.266 521.433C195.266 520.878 195.413 520.39 195.708 519.971C196.014 519.54 196.45 519.206 197.017 518.968C197.584 518.73 198.247 518.611 199.006 518.611C199.652 518.611 200.264 518.69 200.842 518.849C201.42 519.008 201.913 519.251 202.321 519.58L201.624 521.229C201.273 520.968 200.865 520.759 200.4 520.6C199.947 520.441 199.51 520.362 199.091 520.362C198.547 520.362 198.156 520.453 197.918 520.634C197.68 520.804 197.561 521.025 197.561 521.297C197.561 521.501 197.629 521.671 197.765 521.807C197.912 521.943 198.133 522.045 198.428 522.113L200.196 522.436C200.955 522.572 201.533 522.827 201.93 523.201C202.327 523.575 202.525 524.091 202.525 524.748C202.525 525.349 202.366 525.859 202.049 526.278C201.732 526.697 201.284 527.02 200.706 527.247C200.139 527.474 199.482 527.587 198.734 527.587Z" fill="#A4A3C1"/>
<line x1="29" y1="613.5" x2="235" y2="613.5" stroke="#E0DFF0"/>
<g clip-path="url(#clip3_19_13)">
<path d="M71.1075 652.375C70.488 650.275 67.512 650.275 66.8925 652.375L66.7425 652.885C66.6499 653.199 66.4882 653.489 66.2691 653.733C66.05 653.977 65.7791 654.168 65.4763 654.294C65.1736 654.419 64.8465 654.475 64.5193 654.458C64.192 654.44 63.8728 654.35 63.585 654.193L63.12 653.938C61.1955 652.891 59.091 654.996 60.1395 656.919L60.393 657.385C61.062 658.615 60.4275 660.147 59.085 660.543L58.575 660.693C56.475 661.312 56.475 664.288 58.575 664.908L59.085 665.058C59.3994 665.15 59.6891 665.312 59.9328 665.531C60.1766 665.75 60.3682 666.021 60.4936 666.324C60.619 666.626 60.6751 666.953 60.6577 667.281C60.6403 667.608 60.5498 667.927 60.393 668.215L60.138 668.68C59.091 670.605 61.1955 672.709 63.1185 671.661L63.585 671.407C63.8728 671.25 64.192 671.16 64.5193 671.142C64.8465 671.125 65.1736 671.181 65.4763 671.306C65.7791 671.432 66.05 671.623 66.2691 671.867C66.4882 672.111 66.6499 672.401 66.7425 672.715L66.8925 673.225C67.512 675.325 70.488 675.325 71.1075 673.225L71.2575 672.715C71.3501 672.401 71.5118 672.111 71.7309 671.867C71.95 671.623 72.2209 671.432 72.5237 671.306C72.8264 671.181 73.1535 671.125 73.4807 671.142C73.808 671.16 74.1272 671.25 74.415 671.407L74.88 671.662C76.8045 672.709 78.909 670.605 77.8605 668.682L77.607 668.215C77.4502 667.927 77.3597 667.608 77.3423 667.281C77.3249 666.953 77.381 666.626 77.5064 666.324C77.6318 666.021 77.8234 665.75 78.0672 665.531C78.3109 665.312 78.6006 665.15 78.915 665.058L79.425 664.908C81.525 664.288 81.525 661.312 79.425 660.693L78.915 660.543C78.6006 660.45 78.3109 660.288 78.0672 660.069C77.8234 659.85 77.6318 659.579 77.5064 659.276C77.381 658.974 77.3249 658.647 77.3423 658.319C77.3597 657.992 77.4502 657.673 77.607 657.385L77.862 656.92C78.909 654.996 76.8045 652.891 74.8815 653.94L74.415 654.193C74.1272 654.35 73.808 654.44 73.4807 654.458C73.1535 654.475 72.8264 654.419 72.5237 654.294C72.2209 654.168 71.95 653.977 71.7309 653.733C71.5118 653.489 71.3501 653.199 71.2575 652.885L71.1075 652.375ZM69 667.195C67.8344 667.195 66.7165 666.732 65.8923 665.908C65.068 665.084 64.605 663.966 64.605 662.8C64.605 661.634 65.068 660.516 65.8923 659.692C66.7165 658.868 67.8344 658.405 69 658.405C70.1652 658.405 71.2827 658.868 72.1067 659.692C72.9306 660.516 73.3935 661.633 73.3935 662.799C73.3935 663.964 72.9306 665.081 72.1067 665.905C71.2827 666.729 70.1652 667.192 69 667.192V667.195Z" fill="#A4A3C1"/>
</g>
<path d="M102.559 669.187C101.596 669.187 100.695 669.068 99.856 668.83C99.0173 668.592 98.3033 668.263 97.714 667.844L98.496 665.77C98.8813 666.031 99.2893 666.252 99.72 666.433C100.151 666.614 100.604 666.756 101.08 666.858C101.556 666.949 102.055 666.994 102.576 666.994C103.392 666.994 103.97 666.869 104.31 666.62C104.661 666.371 104.837 666.053 104.837 665.668C104.837 665.317 104.718 665.05 104.48 664.869C104.253 664.676 103.834 664.512 103.222 664.376L101.216 663.968C100.117 663.741 99.295 663.356 98.751 662.812C98.207 662.268 97.935 661.543 97.935 660.636C97.935 659.865 98.139 659.197 98.547 658.63C98.955 658.063 99.5273 657.621 100.264 657.304C101.012 656.987 101.885 656.828 102.882 656.828C103.732 656.828 104.525 656.947 105.262 657.185C105.999 657.423 106.605 657.763 107.081 658.205L106.299 660.143C105.834 659.769 105.313 659.491 104.735 659.31C104.168 659.117 103.534 659.021 102.831 659.021C102.094 659.021 101.528 659.151 101.131 659.412C100.746 659.673 100.553 660.03 100.553 660.483C100.553 660.823 100.672 661.101 100.91 661.316C101.148 661.52 101.567 661.684 102.168 661.809L104.14 662.2C105.262 662.427 106.095 662.806 106.639 663.339C107.183 663.872 107.455 664.58 107.455 665.464C107.455 666.212 107.251 666.864 106.843 667.419C106.446 667.974 105.88 668.411 105.143 668.728C104.418 669.034 103.556 669.187 102.559 669.187ZM113.578 669.187C112.082 669.187 110.915 668.785 110.076 667.98C109.238 667.175 108.818 666.082 108.818 664.699C108.818 663.804 108.994 663.022 109.345 662.353C109.708 661.684 110.207 661.163 110.841 660.789C111.487 660.404 112.241 660.211 113.102 660.211C113.952 660.211 114.661 660.392 115.227 660.755C115.805 661.118 116.236 661.628 116.519 662.285C116.814 662.931 116.961 663.685 116.961 664.546V665.141H110.926V663.866H115.091L114.802 664.104C114.802 663.39 114.655 662.852 114.36 662.489C114.077 662.115 113.663 661.928 113.119 661.928C112.519 661.928 112.054 662.149 111.725 662.591C111.408 663.033 111.249 663.668 111.249 664.495V664.767C111.249 665.606 111.453 666.229 111.861 666.637C112.281 667.045 112.881 667.249 113.663 667.249C114.128 667.249 114.564 667.192 114.972 667.079C115.392 666.954 115.788 666.762 116.162 666.501L116.876 668.201C116.446 668.518 115.947 668.762 115.38 668.932C114.825 669.102 114.224 669.187 113.578 669.187ZM122.569 669.187C121.447 669.187 120.603 668.909 120.036 668.354C119.47 667.787 119.186 666.943 119.186 665.821V662.302H117.554V660.381H119.186V658.273L121.753 657.644V660.381H123.963V662.302H121.753V665.685C121.753 666.229 121.867 666.603 122.093 666.807C122.32 667.011 122.609 667.113 122.96 667.113C123.176 667.113 123.351 667.102 123.487 667.079C123.635 667.045 123.788 667 123.946 666.943V668.932C123.731 669.023 123.504 669.085 123.266 669.119C123.028 669.164 122.796 669.187 122.569 669.187ZM128.695 669.187C127.573 669.187 126.729 668.909 126.162 668.354C125.596 667.787 125.312 666.943 125.312 665.821V662.302H123.68V660.381H125.312V658.273L127.879 657.644V660.381H130.089V662.302H127.879V665.685C127.879 666.229 127.993 666.603 128.219 666.807C128.446 667.011 128.735 667.113 129.086 667.113C129.302 667.113 129.477 667.102 129.613 667.079C129.761 667.045 129.914 667 130.072 666.943V668.932C129.857 669.023 129.63 669.085 129.392 669.119C129.154 669.164 128.922 669.187 128.695 669.187ZM131.407 669V660.381H133.974V669H131.407ZM131.305 658.97V656.573H134.059V658.97H131.305ZM136.072 669V662.625C136.072 662.262 136.06 661.894 136.038 661.52C136.015 661.135 135.981 660.755 135.936 660.381H138.401L138.588 661.979H138.384C138.667 661.412 139.069 660.976 139.591 660.67C140.112 660.364 140.718 660.211 141.41 660.211C142.418 660.211 143.172 660.506 143.671 661.095C144.181 661.673 144.436 662.574 144.436 663.798V669H141.869V663.917C141.869 663.294 141.755 662.852 141.529 662.591C141.302 662.33 140.962 662.2 140.509 662.2C139.942 662.2 139.489 662.381 139.149 662.744C138.809 663.095 138.639 663.571 138.639 664.172V669H136.072ZM150.594 672.808C149.767 672.808 149.03 672.723 148.384 672.553C147.738 672.394 147.16 672.151 146.65 671.822L147.143 669.986C147.461 670.19 147.795 670.354 148.146 670.479C148.509 670.615 148.877 670.711 149.251 670.768C149.637 670.836 150.016 670.87 150.39 670.87C151.15 670.87 151.716 670.689 152.09 670.326C152.464 669.963 152.651 669.448 152.651 668.779V666.994H152.821C152.64 667.538 152.277 667.974 151.733 668.303C151.189 668.632 150.577 668.796 149.897 668.796C149.127 668.796 148.452 668.62 147.874 668.269C147.308 667.918 146.866 667.419 146.548 666.773C146.231 666.127 146.072 665.368 146.072 664.495C146.072 663.622 146.231 662.863 146.548 662.217C146.866 661.571 147.308 661.078 147.874 660.738C148.452 660.387 149.127 660.211 149.897 660.211C150.589 660.211 151.195 660.375 151.716 660.704C152.249 661.021 152.606 661.446 152.787 661.979L152.651 661.911L152.821 660.381H155.303C155.258 660.755 155.224 661.135 155.201 661.52C155.179 661.894 155.167 662.262 155.167 662.625V668.49C155.167 669.884 154.776 670.949 153.994 671.686C153.212 672.434 152.079 672.808 150.594 672.808ZM150.662 666.858C151.263 666.858 151.739 666.654 152.09 666.246C152.442 665.838 152.617 665.254 152.617 664.495C152.617 663.736 152.442 663.158 152.09 662.761C151.739 662.353 151.263 662.149 150.662 662.149C150.039 662.149 149.546 662.353 149.183 662.761C148.832 663.158 148.656 663.736 148.656 664.495C148.656 665.254 148.832 665.838 149.183 666.246C149.546 666.654 150.039 666.858 150.662 666.858ZM160.434 669.187C159.664 669.187 158.961 669.102 158.326 668.932C157.692 668.762 157.153 668.524 156.711 668.218L157.374 666.518C157.816 666.79 158.304 667.005 158.836 667.164C159.38 667.323 159.919 667.402 160.451 667.402C160.95 667.402 161.318 667.323 161.556 667.164C161.794 667.005 161.913 666.79 161.913 666.518C161.913 666.291 161.834 666.116 161.675 665.991C161.528 665.866 161.296 665.776 160.978 665.719L159.227 665.396C158.491 665.249 157.93 664.977 157.544 664.58C157.159 664.183 156.966 663.668 156.966 663.033C156.966 662.478 157.114 661.99 157.408 661.571C157.714 661.14 158.151 660.806 158.717 660.568C159.284 660.33 159.947 660.211 160.706 660.211C161.352 660.211 161.964 660.29 162.542 660.449C163.12 660.608 163.613 660.851 164.021 661.18L163.324 662.829C162.973 662.568 162.565 662.359 162.1 662.2C161.647 662.041 161.211 661.962 160.791 661.962C160.247 661.962 159.856 662.053 159.618 662.234C159.38 662.404 159.261 662.625 159.261 662.897C159.261 663.101 159.329 663.271 159.465 663.407C159.613 663.543 159.834 663.645 160.128 663.713L161.896 664.036C162.656 664.172 163.234 664.427 163.63 664.801C164.027 665.175 164.225 665.691 164.225 666.348C164.225 666.949 164.067 667.459 163.749 667.878C163.432 668.297 162.984 668.62 162.406 668.847C161.84 669.074 161.182 669.187 160.434 669.187Z" fill="#A4A3C1"/>
<g clip-path="url(#clip4_19_13)">
<path d="M81 743.4C81 746.583 79.7357 749.635 77.4853 751.885C75.2348 754.136 72.1826 755.4 69 755.4C65.8174 755.4 62.7652 754.136 60.5147 751.885C58.2643 749.635 57 746.583 57 743.4C57 740.217 58.2643 737.165 60.5147 734.915C62.7652 732.664 65.8174 731.4 69 731.4C72.1826 731.4 75.2348 732.664 77.4853 734.915C79.7357 737.165 81 740.217 81 743.4ZM65.244 740.449H66.4815C66.6885 740.449 66.8535 740.28 66.8805 740.074C67.0155 739.09 67.6905 738.373 68.8935 738.373C69.9225 738.373 70.8645 738.888 70.8645 740.125C70.8645 741.078 70.3035 741.516 69.417 742.182C68.4075 742.915 67.608 743.772 67.665 745.162L67.6695 745.488C67.6711 745.586 67.7113 745.68 67.7814 745.749C67.8516 745.818 67.9461 745.857 68.0445 745.857H69.261C69.3605 745.857 69.4558 745.817 69.5262 745.747C69.5965 745.677 69.636 745.581 69.636 745.482V745.324C69.636 744.247 70.0455 743.934 71.151 743.095C72.0645 742.401 73.017 741.63 73.017 740.011C73.017 737.745 71.103 736.65 69.0075 736.65C67.107 736.65 65.025 737.535 64.8825 740.079C64.8804 740.127 64.8883 740.176 64.9056 740.221C64.923 740.266 64.9494 740.308 64.9832 740.342C65.0171 740.377 65.0577 740.404 65.1025 740.423C65.1474 740.441 65.1955 740.45 65.244 740.449ZM68.7315 750.114C69.6465 750.114 70.275 749.523 70.275 748.723C70.275 747.895 69.645 747.313 68.7315 747.313C67.8555 747.313 67.218 747.895 67.218 748.723C67.218 749.523 67.8555 750.114 68.733 750.114H68.7315Z" fill="#A4A3C1"/>
</g>
<path d="M98.224 749.6V737.615H100.876V742.426H106.367V737.615H109.036V749.6H106.367V744.619H100.876V749.6H98.224ZM115.637 749.787C114.141 749.787 112.974 749.385 112.135 748.58C111.296 747.775 110.877 746.682 110.877 745.299C110.877 744.404 111.053 743.622 111.404 742.953C111.767 742.284 112.265 741.763 112.9 741.389C113.546 741.004 114.3 740.811 115.161 740.811C116.011 740.811 116.719 740.992 117.286 741.355C117.864 741.718 118.295 742.228 118.578 742.885C118.873 743.531 119.02 744.285 119.02 745.146V745.741H112.985V744.466H117.15L116.861 744.704C116.861 743.99 116.714 743.452 116.419 743.089C116.136 742.715 115.722 742.528 115.178 742.528C114.577 742.528 114.113 742.749 113.784 743.191C113.467 743.633 113.308 744.268 113.308 745.095V745.367C113.308 746.206 113.512 746.829 113.92 747.237C114.339 747.645 114.94 747.849 115.722 747.849C116.187 747.849 116.623 747.792 117.031 747.679C117.45 747.554 117.847 747.362 118.221 747.101L118.935 748.801C118.504 749.118 118.006 749.362 117.439 749.532C116.884 749.702 116.283 749.787 115.637 749.787ZM120.649 749.6V737.088H123.216V749.6H120.649ZM125.314 753.272V743.225C125.314 742.862 125.302 742.494 125.28 742.12C125.257 741.735 125.223 741.355 125.178 740.981H127.643L127.847 742.664H127.66C127.83 742.097 128.187 741.65 128.731 741.321C129.275 740.981 129.898 740.811 130.601 740.811C131.349 740.811 132.006 740.992 132.573 741.355C133.139 741.706 133.581 742.216 133.899 742.885C134.227 743.554 134.392 744.353 134.392 745.282C134.392 746.223 134.227 747.027 133.899 747.696C133.581 748.365 133.139 748.88 132.573 749.243C132.006 749.606 131.349 749.787 130.601 749.787C129.909 749.787 129.292 749.623 128.748 749.294C128.215 748.965 127.858 748.529 127.677 747.985H127.881V753.272H125.314ZM129.819 747.849C130.419 747.849 130.901 747.639 131.264 747.22C131.626 746.801 131.808 746.155 131.808 745.282C131.808 744.409 131.626 743.769 131.264 743.361C130.901 742.953 130.419 742.749 129.819 742.749C129.229 742.749 128.748 742.953 128.374 743.361C128.011 743.769 127.83 744.409 127.83 745.282C127.83 746.155 128.011 746.801 128.374 747.22C128.748 747.639 129.229 747.849 129.819 747.849Z" fill="#A4A3C1"/>
<path fill-rule="evenodd" clip-rule="evenodd" d="M77 920C77 920.199 76.921 920.39 76.7803 920.53C76.6397 920.671 76.4489 920.75 76.25 920.75H67.5605L70.781 923.969C70.8507 924.039 70.906 924.122 70.9438 924.213C70.9815 924.304 71.0009 924.401 71.0009 924.5C71.0009 924.599 70.9815 924.696 70.9438 924.787C70.906 924.878 70.8507 924.961 70.781 925.031C70.7113 925.101 70.6285 925.156 70.5374 925.194C70.4463 925.232 70.3486 925.251 70.25 925.251C70.1514 925.251 70.0537 925.232 69.9626 925.194C69.8715 925.156 69.7887 925.101 69.719 925.031L65.219 920.531C65.1492 920.461 65.0937 920.379 65.0559 920.287C65.0181 920.196 64.9987 920.099 64.9987 920C64.9987 919.901 65.0181 919.804 65.0559 919.713C65.0937 919.621 65.1492 919.539 65.219 919.469L69.719 914.969C69.8598 914.828 70.0508 914.749 70.25 914.749C70.4492 914.749 70.6402 914.828 70.781 914.969C70.9218 915.11 71.0009 915.301 71.0009 915.5C71.0009 915.699 70.9218 915.89 70.781 916.031L67.5605 919.25H76.25C76.4489 919.25 76.6397 919.329 76.7803 919.47C76.921 919.61 77 919.801 77 920Z" fill="#A4A3C1"/>
<path d="M100.207 929V916.896H102.859V926.841H108.265V929H100.207ZM113.747 929.136C112.829 929.136 112.024 928.955 111.333 928.592C110.653 928.229 110.126 927.708 109.752 927.028C109.389 926.348 109.208 925.555 109.208 924.648C109.208 923.741 109.389 922.948 109.752 922.268C110.126 921.588 110.653 921.067 111.333 920.704C112.024 920.341 112.829 920.16 113.747 920.16C114.653 920.16 115.447 920.341 116.127 920.704C116.807 921.067 117.328 921.588 117.691 922.268C118.065 922.948 118.252 923.741 118.252 924.648C118.252 925.555 118.065 926.348 117.691 927.028C117.328 927.708 116.807 928.229 116.127 928.592C115.447 928.955 114.653 929.136 113.747 929.136ZM113.747 927.181C114.381 927.181 114.863 926.971 115.192 926.552C115.532 926.133 115.702 925.498 115.702 924.648C115.702 923.809 115.532 923.18 115.192 922.761C114.863 922.33 114.381 922.115 113.747 922.115C113.101 922.115 112.608 922.33 112.268 922.761C111.928 923.18 111.758 923.809 111.758 924.648C111.758 926.337 112.421 927.181 113.747 927.181ZM128.613 920.381V928.609C128.613 929.98 128.217 931.023 127.423 931.737C126.63 932.451 125.474 932.808 123.955 932.808C122.584 932.808 121.394 932.542 120.385 932.009L120.776 930.105C121.819 930.626 122.85 930.887 123.87 930.887C124.607 930.887 125.157 930.711 125.519 930.36C125.882 930.02 126.063 929.499 126.063 928.796V927.3C125.791 927.719 125.412 928.071 124.924 928.354C124.437 928.626 123.899 928.762 123.309 928.762C122.561 928.762 121.898 928.586 121.32 928.235C120.742 927.872 120.289 927.368 119.96 926.722C119.632 926.065 119.467 925.311 119.467 924.461C119.467 923.611 119.632 922.863 119.96 922.217C120.289 921.56 120.742 921.055 121.32 920.704C121.898 920.341 122.561 920.16 123.309 920.16C123.91 920.16 124.454 920.29 124.941 920.551C125.429 920.812 125.803 921.163 126.063 921.605V920.381H128.613ZM124.057 926.807C124.681 926.807 125.168 926.603 125.519 926.195C125.882 925.776 126.063 925.198 126.063 924.461C126.063 923.736 125.888 923.169 125.536 922.761C125.185 922.342 124.692 922.132 124.057 922.132C123.423 922.132 122.924 922.342 122.561 922.761C122.199 923.169 122.017 923.736 122.017 924.461C122.017 925.186 122.199 925.759 122.561 926.178C122.924 926.597 123.423 926.807 124.057 926.807ZM141.177 929.153C139.976 929.153 138.927 928.904 138.032 928.405C137.148 927.895 136.462 927.17 135.975 926.229C135.499 925.288 135.261 924.189 135.261 922.931C135.261 921.673 135.499 920.579 135.975 919.65C136.462 918.721 137.148 918.007 138.032 917.508C138.927 916.998 139.976 916.743 141.177 916.743C142.378 916.743 143.421 916.998 144.305 917.508C145.189 918.007 145.869 918.721 146.345 919.65C146.821 920.579 147.059 921.673 147.059 922.931C147.059 924.189 146.821 925.288 146.345 926.229C145.869 927.17 145.189 927.895 144.305 928.405C143.421 928.904 142.378 929.153 141.177 929.153ZM141.177 927.079C142.197 927.079 142.99 926.722 143.557 926.008C144.135 925.294 144.424 924.268 144.424 922.931C144.424 921.594 144.135 920.574 143.557 919.871C142.99 919.168 142.197 918.817 141.177 918.817C140.157 918.817 139.358 919.168 138.78 919.871C138.213 920.574 137.93 921.594 137.93 922.931C137.93 924.28 138.213 925.311 138.78 926.025C139.358 926.728 140.157 927.079 141.177 927.079ZM157.19 920.381V929H154.691V927.742C154.419 928.195 154.062 928.541 153.62 928.779C153.178 929.017 152.679 929.136 152.124 929.136C151.047 929.136 150.242 928.836 149.71 928.235C149.177 927.634 148.911 926.728 148.911 925.515V920.381H151.478V925.566C151.478 926.609 151.925 927.13 152.821 927.13C153.353 927.13 153.784 926.949 154.113 926.586C154.441 926.223 154.606 925.747 154.606 925.158V920.381H157.19ZM162.501 922.302V925.651C162.501 926.127 162.626 926.478 162.875 926.705C163.125 926.92 163.448 927.028 163.844 927.028C164.094 927.028 164.377 926.988 164.694 926.909V928.898C164.286 929.057 163.793 929.136 163.215 929.136C162.15 929.136 161.334 928.836 160.767 928.235C160.212 927.634 159.934 926.79 159.934 925.702V922.302H158.302V920.381H159.934V918.358L162.501 917.525V920.381H164.694V922.302H162.501Z" fill="#CCCBD8"/>
<path d="M4.5 0.5H234C248.083 0.5 259.5 11.9167 259.5 26V998C259.5 1012.08 248.083 1023.5 234 1023.5H4.5V0.5Z" stroke="black" shape-rendering="crispEdges"/>
</g>
<defs>
<filter id="filter0_dd_19_13" x="0" y="0" width="264" height="1032" filterUnits="userSpaceOnUse" color-interpolation-filters="sRGB">
<feFlood flood-opacity="0" result="BackgroundImageFix"/>
<feColorMatrix in="SourceAlpha" type="matrix" values="0 0 0 0 0 0 0 0 0 0 0 0 0 0 0 0 0 0 127 0" result="hardAlpha"/>
<feOffset dy="4"/>
<feGaussianBlur stdDeviation="2"/>
<feComposite in2="hardAlpha" operator="out"/>
<feColorMatrix type="matrix" values="0 0 0 0 0 0 0 0 0 0 0 0 0 0 0 0 0 0 0.25 0"/>
<feBlend mode="normal" in2="BackgroundImageFix" result="effect1_dropShadow_19_13"/>
<feColorMatrix in="SourceAlpha" type="matrix" values="0 0 0 0 0 0 0 0 0 0 0 0 0 0 0 0 0 0 127 0" result="hardAlpha"/>
<feOffset dy="4"/>
<feGaussianBlur stdDeviation="2"/>
<feComposite in2="hardAlpha" operator="out"/>
<feColorMatrix type="matrix" values="0 0 0 0 0 0 0 0 0 0 0 0 0 0 0 0 0 0 0.25 0"/>
<feBlend mode="normal" in2="effect1_dropShadow_19_13" result="effect2_dropShadow_19_13"/>
<feBlend mode="normal" in="SourceGraphic" in2="effect2_dropShadow_19_13" result="shape"/>
</filter>
<clipPath id="clip0_19_13">
<rect width="24" height="24" fill="white" transform="translate(57 282.4)"/>
</clipPath>
<clipPath id="clip1_19_13">
<rect width="24" height="24" fill="white" transform="translate(57 358)"/>
</clipPath>
<clipPath id="clip2_19_13">
<rect width="24" height="24" fill="white" transform="translate(57 509.2)"/>
</clipPath>
<clipPath id="clip3_19_13">
<rect width="24" height="24" fill="white" transform="translate(57 650.8)"/>
</clipPath>
<clipPath id="clip4_19_13">
<rect width="24" height="24" fill="white" transform="translate(57 731.4)"/>
</clipPath>
</defs>
</svg>
